<?xml version="1.0" encoding="utf-8"?>
<!-- Generator: Adobe Illustrator 21.1.0, SVG Export Plug-In . SVG Version: 6.00 Build 0)  -->
<svg version="1.1" xmlns="http://www.w3.org/2000/svg" xmlns:xlink="http://www.w3.org/1999/xlink" x="0px" y="0px"
	 viewBox="0 0 25.6 34.2" style="enable-background:new 0 0 25.6 34.2;" xml:space="preserve">
<style type="text/css">
	.st0{display:none;}
	.st1{display:inline;}
	.st2{fill:#EDF0F1;}
	.st3{fill:#17A186;}
	.st4{fill:#7F8C8D;}
	.st5{display:inline;opacity:0.25;}
	.st6{fill-rule:evenodd;clip-rule:evenodd;fill:#F6EB16;}
	.st7{fill-rule:evenodd;clip-rule:evenodd;fill:#ED2224;}
	.st8{fill:#F2F4F8;}
	.st9{fill:#010101;}
	.st10{fill:#FFFFFF;}
	.st11{clip-path:url(#SVGID_2_);}
	.st12{fill:#444545;}
	.st13{fill:#F68A21;}
	.st14{display:inline;fill:#EEEFF2;}
	.st15{display:inline;fill:#7F7F7F;stroke:#FFFFFF;stroke-miterlimit:10;}
	.st16{fill:#6B6B6B;}
	.st17{fill:none;stroke:#B0B0B0;stroke-miterlimit:10;}
	.st18{fill:none;stroke:#B0B0B0;stroke-miterlimit:10;stroke-dasharray:1.9967,1.9967;}
	.st19{fill:#555555;}
	.st20{fill:#DCDBDB;}
	.st21{fill:#EA7824;}
	.st22{opacity:0.5;}
	.st23{fill:#EDEDED;}
	.st24{fill:#2F373F;}
	.st25{fill:#E5E5E5;}
	.st26{fill:#2A2F38;}
	.st27{opacity:0.6;}
	.st28{opacity:0.2;}
	.st29{clip-path:url(#SVGID_6_);}
	.st30{clip-path:url(#SVGID_8_);}
</style>
<g id="Grid_Template">
</g>
<g id="Header">
</g>
<g class="st0">
</g>
<g id="home">
	<g>
		<path class="st23" d="M3.8,8.5c0-0.3,0.1-0.5,0.3-0.7L7,5.3C7.2,5.1,7.5,5,7.8,5c0.3,0,0.6,0.1,0.8,0.3l12.9,11.1
			c0.2,0.2,0.3,0.4,0.3,0.7c0,0.3-0.1,0.5-0.3,0.7L8.6,28.9c-0.2,0.2-0.5,0.3-0.8,0.3c-0.3,0-0.6-0.1-0.8-0.3l-2.9-2.5
			c-0.2-0.2-0.3-0.4-0.3-0.7c0-0.3,0.1-0.5,0.3-0.7l9.3-8l-9.3-8C3.9,8.9,3.8,8.7,3.8,8.5z"/>
	</g>
</g>
</svg>
